gait_14.mot
version=1
nRows=24
nColumns=19
inDegrees=yes
endheader
time	ground_force_vx	ground_force_vy	ground_force_vz	ground_force_px	ground_force_py	ground_force_pz	1_ground_force_vx	1_ground_force_vy	1_ground_force_vz	1_ground_force_px	1_ground_force_py	1_ground_force_pz	ground_torque_x	ground_torque_y	ground_torque_z	1_ground_torque_x	1_ground_torque_y	1_ground_torque_z
      3.21100000	    -10.22788915	     54.91579059	     -0.70536255	     -0.58245134	      0.00000000	     -0.23678520	      0.00000000	      0.00000000	      0.00000000	      0.00000000	      0.00000000	      0.00000000	      0.00000000	      0.21548597	      0.00000000	      0.00000000	      0.00000000	      0.00000000
      3.21200000	    -10.71258553	     57.63807238	     -0.70297665	     -0.58207370	      0.00000000	     -0.23690467	      0.00000000	      0.00000000	      0.00000000	      0.00000000	      0.00000000	      0.00000000	      0.00000000	      0.22492678	      0.00000000	      0.00000000	      0.00000000	      0.00000000
      3.21300000	    -11.20819250	     60.42510252	     -0.69929575	     -0.58171137	      0.00000000	     -0.23701883	      0.00000000	      0.00000000	      0.00000000	      0.00000000	      0.00000000	      0.00000000	      0.00000000	      0.23458995	      0.00000000	      0.00000000	      0.00000000	      0.00000000
      3.21400000	    -11.71458371	     63.27636383	     -0.69425885	     -0.58136292	      0.00000000	     -0.23712817	      0.00000000	      0.00000000	      0.00000000	      0.00000000	      0.00000000	      0.00000000	      0.00000000	      0.24447255	      0.00000000	      0.00000000	      0.00000000	      0.00000000
      3.21500000	    -12.23161014	     66.19121693	     -0.68780350	     -0.58102712	      0.00000000	     -0.23723314	      0.00000000	      0.00000000	      0.00000000	      0.00000000	      0.00000000	      0.00000000	      0.00000000	      0.25457127	      0.00000000	      0.00000000	      0.00000000	      0.00000000
      3.21600000	    -12.75909906	     69.16889453	     -0.67986588	     -0.58070283	      0.00000000	     -0.23733413	      0.00000000	      0.00000000	      0.00000000	      0.00000000	      0.00000000	      0.00000000	      0.00000000	      0.26488242	      0.00000000	      0.00000000	      0.00000000	      0.00000000
      3.21700000	    -13.29685305	     72.20849549	     -0.67038075	     -0.58038903	      0.00000000	     -0.23743151	      0.00000000	      0.00000000	      0.00000000	      0.00000000	      0.00000000	      0.00000000	      0.00000000	      0.27540193	      0.00000000	      0.00000000	      0.00000000	      0.00000000
      3.21800000	    -13.84464888	     75.30897884	     -0.65928152	     -0.58008480	      0.00000000	     -0.23752560	      0.00000000	      0.00000000	      0.00000000	      0.00000000	      0.00000000	      0.00000000	      0.00000000	      0.28612525	      0.00000000	      0.00000000	      0.00000000	      0.00000000
      3.21900000	    -14.40223642	     78.46915762	     -0.64650025	     -0.57978929	      0.00000000	     -0.23761669	      0.00000000	      0.00000000	      0.00000000	      0.00000000	      0.00000000	      0.00000000	      0.00000000	      0.29704742	      0.00000000	      0.00000000	      0.00000000	      0.00000000
      3.22000000	    -14.96933759	     81.68769265	     -0.63196764	     -0.57950173	      0.00000000	     -0.23770506	      0.00000000	      0.00000000	      0.00000000	      0.00000000	      0.00000000	      0.00000000	      0.00000000	      0.30816297	      0.00000000	      0.00000000	      0.00000000	      0.00000000
      3.22100000	    -15.54564516	     84.96308608	     -0.61561312	     -0.57922142	      0.00000000	     -0.23779095	      0.00000000	      0.00000000	      0.00000000	      0.00000000	      0.00000000	      0.00000000	      0.00000000	      0.31946593	      0.00000000	      0.00000000	      0.00000000	      0.00000000
      3.22200000	    -16.13082167	     88.29367495	     -0.59736483	     -0.57894770	      0.00000000	     -0.23787459	      0.00000000	      0.00000000	      0.00000000	      0.00000000	      0.00000000	      0.00000000	      0.00000000	      0.33094981	      0.00000000	      0.00000000	      0.00000000	      0.00000000
      3.22300000	    -16.72449821	     91.67762454	     -0.57714966	     -0.57867998	      0.00000000	     -0.23795618	      0.00000000	      0.00000000	      0.00000000	      0.00000000	      0.00000000	      0.00000000	      0.00000000	      0.34260755	      0.00000000	      0.00000000	      0.00000000	      0.00000000
      3.22400000	    -17.32627405	     95.11292236	     -0.55489258	     -0.57841769	      0.00000000	     -0.23803591	      0.00000000	      0.00000000	      0.00000000	      0.00000000	      0.00000000	      0.00000000	      0.00000000	      0.35443156	      0.00000000	      0.00000000	      0.00000000	      0.00000000
      3.22500000	    -17.93571864	     98.59737437	     -0.53051376	     -0.57816030	      0.00000000	     -0.23811395	      0.00000000	      0.00000000	      0.00000000	      0.00000000	      0.00000000	      0.00000000	      0.00000000	      0.36641377	      0.00000000	      0.00000000	      0.00000000	      0.00000000
      3.22600000	    -18.55237618	    102.12860384	     -0.50392435	     -0.57790731	      0.00000000	     -0.23819046	      0.00000000	      0.00000000	      0.00000000	      0.00000000	      0.00000000	      0.00000000	      0.00000000	      0.37854579	      0.00000000	      0.00000000	      0.00000000	      0.00000000
      3.22700000	    -19.17577091	    105.70405239	     -0.47502373	     -0.57765822	      0.00000000	     -0.23826556	      0.00000000	      0.00000000	      0.00000000	      0.00000000	      0.00000000	      0.00000000	      0.00000000	      0.39081914	      0.00000000	      0.00000000	      0.00000000	      0.00000000
      3.22800000	    -19.80541262	    109.32098442	     -0.44369918	     -0.57741257	      0.00000000	     -0.23833934	      0.00000000	      0.00000000	      0.00000000	      0.00000000	      0.00000000	      0.00000000	      0.00000000	      0.40322543	      0.00000000	      0.00000000	      0.00000000	      0.00000000
      3.22900000	    -20.44080336	    112.97649685	     -0.40982614	     -0.57716988	      0.00000000	     -0.23841189	      0.00000000	      0.00000000	      0.00000000	      0.00000000	      0.00000000	      0.00000000	      0.00000000	      0.41575657	      0.00000000	      0.00000000	      0.00000000	      0.00000000
      3.23000000	    -21.08144603	    116.66753551	     -0.37326827	     -0.57692973	      0.00000000	     -0.23848328	      0.00000000	      0.00000000	      0.00000000	      0.00000000	      0.00000000	      0.00000000	      0.00000000	      0.42840495	      0.00000000	      0.00000000	      0.00000000	      0.00000000
      3.23100000	    -21.72685510	    120.39091968	     -0.33387718	     -0.57669168	      0.00000000	     -0.23855357	      0.00000000	      0.00000000	      0.00000000	      0.00000000	      0.00000000	      0.00000000	      0.00000000	      0.44116361	      0.00000000	      0.00000000	      0.00000000	      0.00000000
      3.23200000	    -22.37656805	    124.14337509	     -0.29149199	     -0.57645532	      0.00000000	     -0.23862281	      0.00000000	      0.00000000	      0.00000000	      0.00000000	      0.00000000	      0.00000000	      0.00000000	      0.45402643	      0.00000000	      0.00000000	      0.00000000	      0.00000000
      3.23300000	    -23.03015541	    127.92157233	     -0.24593872	     -0.57622028	      0.00000000	     -0.23869106	      0.00000000	      0.00000000	      0.00000000	      0.00000000	      0.00000000	      0.00000000	      0.00000000	      0.46698826	      0.00000000	      0.00000000	      0.00000000	      0.00000000
      3.23400000	    -23.68722763	    131.72216615	     -0.19702941	     -0.57598619	      0.00000000	     -0.23875836	      0.00000000	      0.00000000	      0.00000000	      0.00000000	      0.00000000	      0.00000000	      0.00000000	      0.48004509	      0.00000000	      0.00000000	      0.00000000	      0.00000000
